<?xml version="1.0" standalone="no"?>
<!DOCTYPE svg PUBLIC "-//W3C//DTD SVG 20010904//EN"
 "http://www.w3.org/TR/2001/REC-SVG-20010904/DTD/svg10.dtd">
<svg version="1.0" xmlns="http://www.w3.org/2000/svg"
 width="783.000000pt" height="783.000000pt" viewBox="0 0 783.000000 783.000000"
 preserveAspectRatio="xMidYMid meet">
<metadata>
Created by potrace 1.14, written by Peter Selinger 2001-2017
</metadata>
<g transform="translate(0.000000,783.000000) scale(0.100000,-0.100000)"
fill="#000000" stroke="none">
<path d="M2234 6143 c-49 -16 -113 -76 -140 -129 -18 -38 -19 -89 -19 -2094 0
-2016 0 -2057 19 -2100 11 -25 36 -60 55 -79 75 -71 -46 -65 1516 -67 1582 -1
1468 -7 1540 72 67 73 69 83 71 349 l1 239 264 118 c145 65 311 139 369 165
300 131 406 206 511 368 73 110 110 208 127 330 6 41 9 371 7 800 -2 615 -5
739 -17 785 -80 288 -274 495 -543 578 -109 34 -113 34 -418 37 -158 1 -290 5
-294 8 -3 4 -7 107 -7 229 -2 252 -7 273 -78 339 -77 72 20 68 -1529 67 -1167
0 -1401 -3 -1435 -15z m1032 -966 c16 -8 37 -23 46 -34 45 -50 44 -23 43
-1238 -1 -1278 4 -1184 -67 -1239 -60 -45 -160 -36 -210 20 -46 52 -45 20 -44
1244 l1 1155 23 32 c54 76 133 99 208 60z m960 0 c41 -22 71 -56 81 -97 5 -20
9 -529 8 -1180 -1 -1060 -2 -1147 -18 -1177 -66 -124 -245 -112 -291 20 -8 25
-11 334 -11 1183 1 1066 2 1151 18 1181 18 34 66 75 93 79 9 1 18 5 21 7 9 9
69 0 99 -16z m1595 -314 c27 -12 88 -76 91 -96 1 -7 2 -316 3 -687 3 -714 3
-712 -43 -764 -9 -10 -60 -39 -112 -63 -52 -24 -104 -48 -115 -53 -133 -62
-360 -159 -364 -155 -10 10 -6 1825 4 1828 26 9 513 -1 536 -10z"/>
</g>
</svg>
