<svg fill="none" height="74" viewBox="0 0 75 74" width="75" xmlns="http://www.w3.org/2000/svg"><path clip-rule="evenodd" d="m74 74-74-74h74z" fill="#10b65c" fill-rule="evenodd"/><path d="m22.9483 10.6387c.1581.153.2386.319.2416.4981.0124.179-.0533.3427-.197.4912l-1.2099 1.2505c-.2318.2396-.4294.4055-.5929.4978-.1541.0921-.3138.1277-.4792.1069-.1605-.0162-.3597-.0884-.5976-.2165-.2332-.1329-.4764-.2986-.7295-.4972-.253-.1891-.4777-.3787-.6742-.5687-.551-.5332-.9304-1.0997-1.1383-1.6998-.1985-.6002-.2178-1.19865-.0579-1.79533.1646-.60148.5064-1.17052 1.0256-1.70712.5099-.52702 1.0605-.88027 1.6515-1.05974.5958-.18426 1.1945-.18941 1.7961-.01546.6016.17396 1.1683.51822 1.7002 1.03279.3353.3245.5954.65495.7801.99137.1941.33625.3273.69709.3997 1.0825.0258.1363.0231.25421-.0083.35374-.0266.10416-.0909.20894-.1928.31435-.1438.14852-.3073.23608-.4908.26268-.1788.0218-.3256-.02292-.4406-.13418-.0767-.07417-.1345-.14865-.1734-.22345-.0296-.07494-.062-.18049-.0972-.31664-.0846-.26734-.185-.49906-.3014-.69516-.1116-.19146-.2584-.37527-.4405-.55143-.4551-.44039-.9182-.64256-1.389-.60652-.4661.04069-.9541.32454-1.4641.85156-.5238.54139-.7982 1.0551-.8232 1.54113-.0156.48591.2162.96061.6953 1.42411.23.2226.4807.4188.7523.5888l.9109-.9415-.5174-.5006c-.1581-.153-.2432-.3096-.2553-.46965-.0074-.16489.0584-.31921.1975-.46294.139-.14373.2888-.21221.4492-.20542.165.00199.3266.07948.4847.23246zm3.6886 7.479c-.0389.2128-.114.3767-.2253.4917-.1483.1533-.3382.22-.5695.2003-.2219-.0199-.4168-.111-.5844-.2733-.115-.1112-.1973-.2419-.2469-.3919-.0497-.1501-.0594-.3126-.0293-.4875l.3869-2.2694c.0257-.1608.021-.2998-.0139-.4171-.0255-.1174-.0886-.2248-.1892-.3222l-.4671-.4519-1.2447 1.2864c-.1947.2012-.4075.3061-.6384.3146-.2262.0037-.44-.0918-.6412-.2865s-.3061-.4075-.3146-.6383c.0009-.2311.0987-.4472.2934-.6484l3.7202-3.8449c.19-.1964.3887-.2963.5961-.2998.2074-.0034.4093.0899.6058.28l1.8038 1.7454c.6133.5933.9434 1.1725.9904 1.7375.0565.5648-.1586 1.0988-.6454 1.6018-.3708.3833-.7915.6071-1.2619.6715-.4658.0595-.9343-.0506-1.4057-.3305.1349.177.2205.3618.2567.5545.0409.1973.0401.4331-.0025.7072zm-.0736-4.0369c.2922.2827.5447.4389.7573.4684.2175.0341.4258-.0518.6252-.2579.204-.2108.2853-.4243.244-.6405-.0318-.2163-.1939-.4659-.4861-.7487l-.9199-.89-1.1404 1.1786zm.6904 6.2617c-.1965-.1901-.2964-.3888-.2998-.5962s.0899-.4093.28-.6057l3.7201-3.8449c.1901-.1964.3888-.2963.5962-.2998.2074-.0034.4093.0899.6057.28l2.4866 2.4059c.206.1994.32.3932.342.5814s-.0459.3638-.2035.5267c-.3338.3449-.7091.3158-1.1259-.0875l-1.811-1.7524-.9318.9631 1.6673 1.6132c.4168.4033.4607.775.1315 1.1152-.1576.1629-.3308.2365-.5197.2207-.1888-.0157-.3862-.1233-.5923-.3226l-1.6673-1.6132-1.0152 1.0492 1.8111 1.7523c.4168.4033.4583.7775.1245 1.1224-.1576.1629-.3308.2365-.5197.2207-.1888-.0157-.3862-.1232-.5923-.3226zm9.2508 7.3785c-.045.1327-.1092.2422-.1926.3284-.153.1581-.3475.2297-.5834.2147-.2312-.0103-.4283-.0943-.5912-.2519-.1102-.1066-.183-.2327-.2184-.3783-.0354-.1455-.0238-.3013.0348-.4673l.3789-1.0388-2.3285-2.2529-1.0329.406c-.164.064-.3217.0784-.4731.0431-.1467-.0306-.2751-.0992-.3853-.2058-.1629-.1576-.2581-.3564-.2856-.5964-.0228-.2354.0424-.4321.1953-.5902.0835-.0862.1908-.154.322-.2033l5.6661-2.0594c.1875-.0691.3735-.0793.5582-.0304.1941.0486.3654.1448.5139.2885.1438.1391.2432.3048.2982.4972.0597.1876.058.3762-.0048.5659zm-2.0952-4.4067 1.4373 1.3907.832-2.298zm3.0422 6.9649c-.2012-.1947-.3085-.4098-.3218-.6453-.0039-.2357.0892-.4518.2793-.6482l3.2751-3.3849-1.0133-.9805c-.2108-.2039-.3272-.4-.3492-.5883-.0125-.1883.0693-.3736.2455-.5556.1761-.1821.3562-.2676.5403-.2564.1888.0157.3887.1256.5995.3295l3.3633 3.2543c.2108.204.3248.3978.342.5813.0219.1883-.0552.3734-.2313.5555-.1762.182-.361.2676-.5545.2566-.184-.0111-.3815-.1186-.5923-.3226l-1.0133-.9804-3.2751 3.3849c-.1901.1964-.4054.2942-.6458.2935-.231-.0009-.4472-.0987-.6484-.2934zm14.2567 3.8453c.1821.1762.2727.3798.2717.6108-.0009.2311-.094.4424-.2795.634l-3.7827 3.9096c-.1762.182-.3679.2748-.5753.2782s-.3973-.0783-.5698-.2452c-.1677-.1623-.2557-.3494-.2639-.5614-.0034-.2074.083-.4021.2591-.5842l2.0444-2.1129-2.2795.7165c-.2298.0745-.4227.1013-.5786.0803-.1513-.0258-.2892-.099-.4138-.2195s-.2023-.256-.233-.4064c-.0262-.1551-.0058-.3487.0611-.5809l.6065-2.2518-2.0027 2.0698c-.1715.1772-.3657.2677-.5825.2712-.2074.0034-.3973-.0783-.5698-.2452-.1677-.1622-.2556-.3494-.2638-.5614-.0034-.2074.0829-.4021.2591-.5842l3.7827-3.9095c.1855-.1916.3936-.2917.6245-.3002.2357-.0039.4445.0822.6266.2584.1294.1251.2096.277.2409.4557.0358.1738.0225.365-.0401.5735l-1.0836 3.766 3.7211-1.2141c.4267-.1437.767-.0928 1.0209.1529zm2.2506 10.4847c-.045.1327-.1092.2422-.1926.3285-.153.1581-.3475.2296-.5835.2147-.2312-.0104-.4282-.0943-.5911-.2519-.1102-.1067-.183-.2328-.2184-.3783-.0354-.1456-.0238-.3014.0347-.4674l.3789-1.0387-2.3284-2.253-1.0329.406c-.164.064-.3217.0784-.4731.0432-.1467-.0306-.2751-.0992-.3853-.2058-.1629-.1577-.2581-.3565-.2857-.5965-.0227-.2353.0424-.4321.1954-.5902.0834-.0862.1908-.154.322-.2033l5.6661-2.0594c.1874-.0691.3735-.0792.5582-.0304.1941.0487.3654.1448.5139.2885.1437.1391.2431.3048.2981.4972.0597.1876.0581.3763-.0048.5659zm-2.0953-4.4067 1.4374 1.3907.8319-2.298zm3.0423 6.9649c-.2013-.1947-.3085-.4098-.3218-.6453-.0039-.2357.0892-.4517.2792-.6482l3.2752-3.3849-1.0134-.9804c-.2108-.204-.3271-.4001-.3491-.5883-.0125-.1884.0693-.3736.2454-.5557.1762-.1821.3563-.2675.5403-.2564.1889.0157.3887.1256.5995.3296l3.3634 3.2542c.2108.204.3248.3978.3419.5814.022.1882-.0551.3733-.2313.5554-.1761.1821-.3609.2676-.5544.2567-.1841-.0111-.3815-.1187-.5923-.3227l-1.0133-.9804-3.2752 3.3849c-.19.1964-.4053.2943-.6457.2935-.2311-.0009-.4472-.0987-.6484-.2934zm4.8215 4.7208c-.5079-.4913-.8514-1.0279-1.0308-1.6095-.1745-.5771-.1771-1.164-.0078-1.7608.1741-.5922.5162-1.1519 1.0261-1.6789.5053-.5222 1.051-.8801 1.6372-1.0736.5909-.1889 1.1776-.2057 1.7601-.0502.5872.16 1.1348.4857 1.6426.9771.6085.5887.9874 1.2661 1.1368 2.0322.0258.1363.023.2542-.0083.3537-.0266.1042-.0909.2089-.1929.3143-.1437.1486-.3097.2338-.4979.2558-.1788.0218-.3281-.0253-.4478-.1412-.0719-.0695-.1273-.1417-.1663-.2165-.0343-.0795-.0666-.1804-.0969-.3025-.0703-.2628-.1589-.4877-.2657-.6745s-.2393-.3567-.3974-.5097c-.4264-.4126-.8701-.5915-1.3313-.5367-.4517.0545-.9302.343-1.4355.8652-.5099.527-.787 1.0195-.8313 1.4776-.0349.4579.1608.8931.5872 1.3057.1438.1391.3036.252.4794.3386.1805.0819.4226.177.7261.2851.1516.0447.2606.0806.3271.1078.0664.0272.1332.0732.2003.1381.1197.1159.1694.266.1488.4502-.0111.184-.0885.3503-.2322.4988-.0973.1006-.2.1683-.3078.2031-.0985.0346-.2162.0413-.3533.02-.7705-.124-1.46-.4804-2.0685-1.0692zm11.4801 1.1031c.1964.1901.2942.4006.2933.6317.0085.2309-.0823.4445-.2724.641l-3.7201 3.8448c-.1901.1964-.403.2966-.6386.3005-.2309.0085-.4446-.0823-.641-.2723-.1964-.1901-.2989-.4006-.3074-.6314.0009-.2311.0987-.4472.2934-.6484l1.3907-1.4374-2.0698-2.0026-1.3907 1.4373c-.19.1965-.4029.2966-.6386.3005-.2309.0085-.4445-.0822-.6409-.2723-.1965-.1901-.299-.4005-.3075-.6314.0009-.2311.0987-.4472.2934-.6484l3.7202-3.8449c.1901-.1964.3982-.2965.6245-.3002.2356-.0039.4517.0892.6481.2793.1964.19.2942.4006.2933.6316.0085.2309-.0822.4445-.2723.641l-1.3142 1.3583 2.0697 2.0026 1.3142-1.3583c.1901-.1964.3983-.2965.6245-.3002.2357-.0039.4517.0892.6482.2792z" fill="#fff"/></svg>